#Comment line ignore any data following # character 
#Hierarchical Translation and Rotation (.htr) file 
[Header]	
#Header keywords are followed by a single value 
FileType HTR		#Single word string
DataType HTRS		#Translation followed by rotation and scale data
FileVersion 1		#integer
NumSegments 25		#integer
NumFrames 5		#integer
DataFrameRate 30		#integer, data frame rate in this file
EulerRotationOrder ZYX
CalibrationUnits mm
RotationUnits Degrees
GlobalAxisofGravity Y
BoneLengthAxis Y
ScaleFactor 1.00
[SegmentNames&Hierarchy]
#CHILD	PARENT
BN_Tick_Root GLOBAL
BN_Torso BN_Tick_Root
BN_L_Leg_Front01 BN_Torso
BN_L_Leg_Rear01 BN_Torso
BN_MetalTop BN_Torso
BN_Neck BN_Torso
BN_R_Leg_Front01 BN_Torso
BN_R_Leg_Rear01 BN_Torso
BN_Sack BN_Torso
BN_L_Leg_Front02 BN_L_Leg_Front01
BN_L_Leg_Front03 BN_L_Leg_Front02
BN_L_Leg_Rear02 BN_L_Leg_Rear01
BN_L_Leg_Rear03 BN_L_Leg_Rear02
BN_Head BN_Neck
BN_Needle BN_Head
BN_R_Leg_Front02 BN_R_Leg_Front01
BN_R_Leg_Front03 BN_R_Leg_Front02
BN_R_Leg_Rear02 BN_R_Leg_Rear01
BN_R_Leg_Rear03 BN_R_Leg_Rear02
BN_SackDef01 BN_Sack
BN_SackDef02 BN_Sack
BN_SackDef03 BN_Sack
BN_SackDef04 BN_Sack
BN_SackDef05 BN_Sack
BN_SackDef06 BN_Sack
[BasePosition]
#SegmentName Tx, Ty, Tz, Rx, Ry, Rz, BoneLength
BN_Tick_Root 0.000000 0.000000 0.000000 -90.000000 0.000000 0.000000 10.000000 
BN_Torso 0.000000 0.000000 0.000000 0.000000 0.000000 0.000000 10.000000 
BN_L_Leg_Front01 0.000000 0.000000 0.000000 0.000000 0.000000 0.000000 10.000000 
BN_L_Leg_Rear01 0.000000 0.000000 0.000000 0.000000 0.000000 0.000000 10.000000 
BN_MetalTop 0.000000 0.000000 0.000000 0.000000 0.000000 0.000000 10.000000 
BN_Neck 0.000000 0.000000 0.000000 0.000000 0.000000 0.000000 10.000000 
BN_R_Leg_Front01 0.000000 0.000000 0.000000 0.000000 0.000000 0.000000 10.000000 
BN_R_Leg_Rear01 0.000000 0.000000 0.000000 0.000000 0.000000 0.000000 10.000000 
BN_Sack 0.000000 0.000000 0.000000 0.000000 0.000000 0.000000 10.000000 
BN_L_Leg_Front02 0.000000 0.000000 0.000000 0.000000 0.000000 0.000000 10.000000 
BN_L_Leg_Front03 0.000000 0.000000 0.000000 0.000000 0.000000 0.000000 10.000000 
BN_L_Leg_Rear02 0.000000 0.000000 0.000000 0.000000 0.000000 0.000000 10.000000 
BN_L_Leg_Rear03 0.000000 0.000000 0.000000 0.000000 0.000000 0.000000 10.000000 
BN_Head 0.000000 0.000000 0.000000 0.000000 0.000000 0.000000 10.000000 
BN_Needle 0.000000 0.000000 0.000000 0.000000 0.000000 0.000000 10.000000 
BN_R_Leg_Front02 0.000000 0.000000 0.000000 0.000000 0.000000 0.000000 10.000000 
BN_R_Leg_Front03 0.000000 0.000000 0.000000 0.000000 0.000000 0.000000 10.000000 
BN_R_Leg_Rear02 0.000000 0.000000 0.000000 0.000000 0.000000 0.000000 10.000000 
BN_R_Leg_Rear03 0.000000 0.000000 0.000000 0.000000 0.000000 0.000000 10.000000 
BN_SackDef01 0.000000 0.000000 0.000000 0.000000 0.000000 0.000000 10.000000 
BN_SackDef02 0.000000 0.000000 0.000000 0.000000 0.000000 0.000000 10.000000 
BN_SackDef03 0.000000 0.000000 0.000000 0.000000 0.000000 0.000000 10.000000 
BN_SackDef04 0.000000 0.000000 0.000000 0.000000 0.000000 0.000000 10.000000 
BN_SackDef05 0.000000 0.000000 0.000000 0.000000 0.000000 0.000000 10.000000 
BN_SackDef06 0.000000 0.000000 0.000000 0.000000 0.000000 0.000000 10.000000 
#Beginning of Data. Separated by tabs
#Fr	Tx	Ty	Tz	Rx	Ry	Rz	SF
[BN_Tick_Root]
142 -108.419975 854.555603 1286.739014 0.000000 0.000000 -27.324154 1548.456543
143 -128.593735 724.294250 1098.722290 0.000000 0.000000 -27.324150 1322.244019
144 -149.681396 593.127197 919.582214 0.000000 0.000000 -27.324144 1104.461792
145 -161.429703 531.346802 833.714600 0.000000 0.000000 -27.324141 1001.732971
146 -167.269608 530.356812 823.374084 0.000000 0.000000 -27.324137 993.580566
[BN_Torso]
142 -74.685699 -169.191345 15.230980 71.039268 -3.327569 -17.415890 185.568451
143 -34.200020 -183.267380 53.042938 86.018486 4.954788 -7.641496 193.830139
144 3.103115 -137.633423 81.767616 99.373436 9.357319 2.616332 160.120361
145 7.321313 -93.099144 124.748802 103.022102 9.882897 5.543260 155.831055
146 23.806269 -94.292778 112.329865 104.855095 10.173278 7.084274 148.579483
[BN_L_Leg_Front01]
142 -68.477791 10.734189 -26.804373 -10.561812 68.491776 -153.228653 74.316254
143 -68.477791 10.734189 -26.804373 -10.561812 68.491776 -153.228653 74.316254
144 -68.477791 10.734189 -26.804373 -10.562225 68.491806 -153.227127 74.316254
145 -68.477791 10.734189 -26.804373 -13.862329 68.776726 -140.476700 74.316254
146 -68.477791 10.734189 -26.804373 -20.536657 66.554031 -138.678238 74.316254
[BN_L_Leg_Rear01]
142 -72.133743 -73.994843 -18.268616 95.543915 57.864105 -110.413422 104.939293
143 -72.133743 -73.994843 -18.268616 95.543915 57.864105 -110.413422 104.939293
144 -72.133743 -73.994843 -18.268616 95.544556 57.863609 -110.412743 104.939293
145 -72.133743 -73.994843 -18.268616 100.161911 53.702038 -105.386230 104.939293
146 -72.133743 -73.994843 -18.268616 100.156677 52.242706 -104.968285 104.939293
[BN_MetalTop]
142 0.000008 13.737477 26.403606 90.000008 -12.928561 -89.999992 29.763546
143 0.000008 13.737477 26.403606 90.000008 -12.928561 -89.999992 29.763546
144 0.000008 13.737477 26.403606 90.000008 -12.928561 -89.999992 29.763546
145 0.000008 13.737477 26.403606 90.000008 -12.928561 -89.999992 29.763546
146 0.000008 13.737477 26.403606 90.000008 -12.928561 -89.999992 29.763546
[BN_Neck]
142 0.000014 95.233284 10.002091 -89.996674 -67.858650 89.999062 95.757088
143 0.000014 95.233284 10.002091 -90.009552 -68.880020 90.008400 95.757088
144 0.000014 95.233284 10.002091 -90.000038 -65.930138 90.002449 95.757088
145 0.000014 95.233284 10.002091 -90.001854 -58.758179 90.000656 95.757088
146 0.000014 95.233284 10.002091 -89.998360 -49.902576 89.997131 95.757088
[BN_R_Leg_Front01]
142 68.477768 10.734107 -26.804314 -69.865974 74.423325 -156.947998 74.316193
143 68.477768 10.734107 -26.804314 -69.865974 74.423325 -156.947998 74.316193
144 68.477768 10.734107 -26.804314 -69.862068 74.423752 -156.945816 74.316193
145 68.477768 10.734107 -26.804314 -33.829350 75.767540 -135.143585 74.316193
146 68.477768 10.734107 -26.804314 -29.178804 74.506210 -136.856781 74.316193
[BN_R_Leg_Rear01]
142 72.133751 -73.994873 -18.268644 -68.592178 65.540474 -71.541046 104.939331
143 72.133751 -73.994873 -18.268644 -68.592178 65.540474 -71.541046 104.939331
144 72.133751 -73.994873 -18.268644 -68.592316 65.539665 -71.540993 104.939331
145 72.133751 -73.994873 -18.268644 -69.435371 58.644154 -70.743027 104.939331
146 72.133751 -73.994873 -18.268644 -71.582634 56.950665 -73.082008 104.939331
[BN_Sack]
142 -0.000000 -78.024918 33.657791 90.000214 12.472566 -90.002777 84.974907
143 -0.000000 -78.024918 33.657791 89.999992 14.091607 -89.998543 84.974907
144 -0.000000 -78.024918 33.657791 90.000717 16.480715 -90.002220 84.974907
145 -0.000000 -78.024918 33.657791 89.999069 19.429762 -89.998047 84.974907
146 -0.000000 -78.024918 33.657791 89.999939 22.799610 -89.998650 84.974907
[BN_L_Leg_Front02]
142 142.805023 -0.000015 -0.000104 -0.422719 1.093544 -170.940216 142.805023
143 142.805023 -0.000015 -0.000104 -0.429532 1.101525 -170.940308 142.805023
144 142.805023 -0.000015 -0.000104 -0.436521 1.109585 -170.948715 142.805023
145 142.805023 -0.000015 -0.000104 -1.985007 0.781874 116.025986 142.805023
146 142.805023 -0.000015 -0.000104 -1.958380 0.781807 116.543167 142.805023
[BN_L_Leg_Front03]
142 124.143021 -0.000045 0.000007 0.352426 -0.169471 157.816467 124.143021
143 124.143021 -0.000045 0.000007 0.352426 -0.169471 157.816467 124.143021
144 124.143021 -0.000045 0.000007 0.352422 -0.169451 157.819199 124.143021
145 124.143021 -0.000045 0.000007 0.352815 0.002270 -179.670288 124.143021
146 124.143021 -0.000045 0.000007 0.352815 0.002261 -179.671494 124.143021
[BN_L_Leg_Rear02]
142 139.939041 0.000075 -0.000022 0.077972 -0.224769 96.075607 139.939041
143 139.939041 0.000075 -0.000022 0.079255 -0.233591 96.075577 139.939041
144 139.939041 0.000075 -0.000022 0.080538 -0.242410 96.075378 139.939041
145 139.939041 0.000075 -0.000022 0.080683 -0.223809 94.690956 139.939041
146 139.939041 0.000075 -0.000022 0.089423 -0.218438 92.026016 139.939041
[BN_L_Leg_Rear03]
142 142.839615 0.000179 -0.000060 0.000506 -0.002292 -114.909462 142.839615
143 142.839615 0.000179 -0.000060 0.000506 -0.002292 -114.909462 142.839615
144 142.839615 0.000179 -0.000060 0.000506 -0.002292 -114.909302 142.839615
145 142.839615 0.000179 -0.000060 0.000475 -0.002299 -113.329750 142.839615
146 142.839615 0.000179 -0.000060 0.000412 -0.002311 -110.223389 142.839615
[BN_Head]
142 57.062447 -0.000030 0.000000 0.002307 0.000434 68.692642 57.062447
143 57.062447 -0.000030 0.000000 0.002313 0.000398 70.474426 57.062447
144 57.062447 -0.000030 0.000000 0.002293 0.000501 65.327759 57.062447
145 57.062447 -0.000030 0.000000 0.002225 0.000748 52.826492 57.062447
146 57.062447 -0.000030 0.000000 0.002104 0.001040 37.381237 57.062447
[BN_Needle]
142 31.917025 15.264326 -0.000076 0.000003 0.000030 87.896805 35.379318
143 31.838268 13.122340 -0.000019 0.000003 0.000030 87.896805 34.436481
144 32.162868 21.960533 -0.000038 0.000003 0.000030 87.896805 38.945026
145 32.876827 41.401794 -0.000048 0.000003 0.000030 87.896805 52.867710
146 33.590736 60.841763 -0.000057 0.000003 0.000030 87.896805 69.498619
[BN_R_Leg_Front02]
142 142.804947 -0.000060 0.000060 0.376367 1.074514 167.478577 142.804947
143 142.804947 -0.000060 0.000060 0.376367 1.074514 167.478577 142.804947
144 142.804947 -0.000060 0.000060 0.376399 1.074531 167.480606 142.804947
145 142.804947 -0.000060 0.000060 0.653147 1.177278 -175.843338 142.804947
146 142.804947 -0.000060 0.000060 0.812761 1.198976 -167.667725 142.804947
[BN_R_Leg_Front03]
142 124.143005 -0.000060 -0.000156 -0.354309 -0.180253 -156.381668 124.143005
143 124.143005 -0.000060 -0.000156 -0.354309 -0.180253 -156.381668 124.143005
144 124.143005 -0.000060 -0.000156 -0.354309 -0.180247 -156.382462 124.143005
145 124.143005 -0.000060 -0.000156 -0.353570 -0.133360 -162.830200 124.143005
146 124.143005 -0.000060 -0.000156 -0.351401 -0.111906 -165.631287 124.143005
[BN_R_Leg_Rear02]
142 139.939011 -0.000149 0.000015 0.091266 -0.251358 -146.452805 139.939011
143 139.939011 -0.000149 0.000015 0.091266 -0.251358 -146.452805 139.939011
144 139.939011 -0.000149 0.000015 0.091261 -0.251358 -146.451385 139.939011
145 139.939011 -0.000149 0.000015 0.053476 -0.249062 -134.796997 139.939011
146 139.939011 -0.000149 0.000015 0.053011 -0.271516 -133.955063 139.939011
[BN_R_Leg_Rear03]
142 142.839417 0.000075 0.000119 0.001995 -0.001236 153.562180 142.839417
143 142.839417 0.000075 0.000119 0.001995 -0.001236 153.562180 142.839417
144 142.839417 0.000075 0.000119 0.001995 -0.001236 153.561417 142.839417
145 142.839417 0.000075 0.000119 0.002059 -0.001128 147.429382 142.839417
146 142.839417 0.000075 0.000119 0.002063 -0.001119 146.934692 142.839417
[BN_SackDef01]
142 249.782272 -3.760844 42.949425 -128.408218 -44.374973 -11.740845 253.475800
143 249.782272 -3.760844 42.949425 -128.408218 -44.374973 -11.740845 253.475800
144 249.782272 -3.760844 42.949425 -128.408218 -44.374973 -11.740845 253.475800
145 249.782272 -3.760844 42.949425 -128.408218 -44.374973 -11.740845 253.475800
146 249.782272 -3.760844 42.949425 -128.408218 -44.374973 -11.740845 253.475800
[BN_SackDef02]
142 138.789795 -62.131748 45.674385 32.077126 -27.375721 -88.781525 158.773758
143 138.789795 -62.131748 45.674385 32.077126 -27.375721 -88.781525 158.773758
144 138.789795 -62.131748 45.674385 32.077126 -27.375721 -88.781525 158.773758
145 138.789795 -62.131748 45.674385 32.077126 -27.375721 -88.781525 158.773758
146 138.789795 -62.131748 45.674385 32.077126 -27.375721 -88.781525 158.773758
[BN_SackDef03]
142 249.782272 -3.760785 -42.949661 18.144459 44.375008 -11.740894 253.475845
143 249.782272 -3.760785 -42.949661 18.144459 44.375008 -11.740894 253.475845
144 249.782272 -3.760785 -42.949661 18.144459 44.375008 -11.740894 253.475845
145 249.782272 -3.760785 -42.949661 18.144459 44.375008 -11.740894 253.475845
146 249.782272 -3.760785 -42.949661 18.144459 44.375008 -11.740894 253.475845
[BN_SackDef04]
142 138.789780 -62.131645 -45.674473 146.059982 27.375723 -88.781555 158.773743
143 138.789780 -62.131645 -45.674473 146.059982 27.375723 -88.781555 158.773743
144 138.789780 -62.131645 -45.674473 146.059982 27.375723 -88.781555 158.773743
145 138.789780 -62.131645 -45.674473 146.059982 27.375723 -88.781555 158.773743
146 138.789780 -62.131645 -45.674473 146.059982 27.375723 -88.781555 158.773743
[BN_SackDef05]
142 118.790161 46.167137 -63.831196 0.155741 51.314110 90.605110 142.537460
143 118.790161 46.167137 -63.831196 0.155741 51.314110 90.605110 142.537460
144 118.790161 46.167137 -63.831196 0.155741 51.314110 90.605110 142.537460
145 118.790161 46.167137 -63.831196 0.155741 51.314110 90.605110 142.537460
146 118.790161 46.167137 -63.831196 0.155741 51.314110 90.605110 142.537460
[BN_SackDef06]
142 118.790207 46.167194 63.831219 152.058487 -51.314072 90.605019 142.537537
143 118.790207 46.167194 63.831219 152.058487 -51.314072 90.605019 142.537537
144 118.790207 46.167194 63.831219 152.058487 -51.314072 90.605019 142.537537
145 118.790207 46.167194 63.831219 152.058487 -51.314072 90.605019 142.537537
146 118.790207 46.167194 63.831219 152.058487 -51.314072 90.605019 142.537537
